<svg width="601" height="600" viewBox="0 0 601 600" fill="none" xmlns="http://www.w3.org/2000/svg">
<path d="M128.267 491.28C229.175 543.996 392.771 543.996 493.679 491.28C594.587 438.564 594.575 353.1 493.679 300.384C392.783 247.668 229.175 247.668 128.267 300.384C27.3592 353.1 27.3592 438.576 128.267 491.28Z" fill="black" fill-opacity="0.03"/>
<path d="M512.435 451.08C490.127 461.724 453.959 461.724 431.639 451.08C409.319 440.436 409.331 423.216 431.639 412.572C453.947 401.928 490.127 401.94 512.435 412.572C534.743 423.204 534.791 440.4 512.435 451.08Z" fill="black" fill-opacity="0.07"/>
<path d="M204.911 417.6L335.711 342.12C337.321 341.303 339.102 340.877 340.907 340.877C342.713 340.877 344.493 341.303 346.103 342.12L384.779 364.428C387.647 366.084 387.647 368.772 384.779 370.428L254.099 446.4C252.498 447.225 250.723 447.656 248.921 447.656C247.12 447.656 245.344 447.225 243.743 446.4L204.887 423.6C202.031 421.944 202.043 419.232 204.911 417.6Z" fill="black" fill-opacity="0.07"/>
<path d="M125.015 443.364C125.015 443.364 131.879 445.308 133.967 446.664C136.055 448.02 132.359 448.56 127.619 447.864C130.081 449.4 132.402 451.151 134.555 453.096C136.739 455.352 130.859 452.784 130.859 452.784C130.859 452.784 133.259 459.204 130.175 459.684C127.091 460.164 121.559 453.972 121.559 453.972C121.559 453.972 118.955 457.2 118.199 455.736C117.443 454.272 118.127 451.356 118.127 451.356C115.955 452.921 113.686 454.347 111.335 455.628C109.691 456.276 110.135 453.432 110.135 453.432C110.135 453.432 98.3512 456.636 97.0192 455.832C95.6872 455.028 101.015 450.504 102.899 449.052C102.899 449.052 97.7152 448.56 98.7232 447.732C99.7312 446.904 104.207 445.692 107.807 445.116C107.807 445.116 100.367 444.216 99.6832 443.52C98.9992 442.824 102.503 442.032 102.503 442.032C102.503 442.032 95.8912 439.188 96.8032 437.46C97.7152 435.732 107.603 438.936 107.603 438.936C107.603 438.936 105.743 436.908 107.699 436.728C109.655 436.548 117.299 441.408 117.299 441.408C117.299 441.408 117.935 437.172 119.927 437.04C122.879 436.86 125.015 443.364 125.015 443.364Z" fill="#73895D"/>
<path d="M99.6351 455.076C99.5725 455.074 99.512 455.053 99.4609 455.017C99.4098 454.981 99.3703 454.93 99.3471 454.872C99.3314 454.834 99.3232 454.794 99.3231 454.753C99.323 454.712 99.331 454.671 99.3466 454.633C99.3622 454.595 99.3851 454.561 99.414 454.532C99.443 454.503 99.4773 454.48 99.5151 454.464C99.6471 454.464 112.715 449.1 124.823 443.076C136.931 437.052 141.191 433.08 141.239 433.032C141.299 432.976 141.379 432.944 141.461 432.944C141.544 432.944 141.623 432.976 141.683 433.032C141.74 433.094 141.772 433.176 141.772 433.26C141.772 433.345 141.74 433.426 141.683 433.488C141.503 433.644 137.231 437.58 125.111 443.628C112.991 449.676 99.9111 454.98 99.7671 455.04L99.6351 455.076Z" fill="#73895D"/>
<path d="M112.667 453.24C112.618 453.24 112.569 453.227 112.525 453.204C112.481 453.181 112.444 453.148 112.415 453.108C112.359 453.048 112.327 452.969 112.327 452.886C112.327 452.804 112.359 452.724 112.415 452.664C114.197 451.379 115.588 449.627 116.435 447.6L103.391 447.936C103.308 447.936 103.229 447.903 103.17 447.845C103.112 447.786 103.079 447.707 103.079 447.624C103.079 447.54 103.112 447.46 103.17 447.399C103.228 447.339 103.307 447.303 103.391 447.3L117.299 446.94L117.191 447.348C116.384 449.696 114.86 451.731 112.835 453.168C112.787 453.208 112.729 453.233 112.667 453.24Z" fill="#73895D"/>
<path d="M127.931 457.536C127.851 457.537 127.774 457.507 127.715 457.452C127.415 457.164 120.647 450.528 121.019 445.452C113.871 443.974 106.87 441.853 100.103 439.116C100.027 439.083 99.9668 439.02 99.9364 438.943C99.906 438.865 99.9077 438.778 99.9412 438.702C99.9746 438.626 100.037 438.566 100.115 438.535C100.192 438.505 100.279 438.507 100.355 438.54C107.172 441.292 114.225 443.417 121.427 444.888H121.715V445.188C121.079 449.988 128.123 456.924 128.195 456.996C128.252 457.056 128.283 457.136 128.283 457.218C128.283 457.301 128.252 457.38 128.195 457.44C128.161 457.475 128.12 457.501 128.074 457.518C128.028 457.535 127.98 457.541 127.931 457.536Z" fill="#73895D"/>
<path d="M114.419 443.748H105.035C104.952 443.748 104.873 443.715 104.815 443.657C104.756 443.598 104.723 443.519 104.723 443.436C104.723 443.353 104.756 443.274 104.815 443.215C104.873 443.157 104.952 443.124 105.035 443.124H113.435C112.382 441.593 111.108 440.226 109.655 439.068C109.599 439.008 109.567 438.929 109.567 438.846C109.567 438.764 109.599 438.684 109.655 438.624C109.684 438.595 109.719 438.571 109.757 438.555C109.795 438.539 109.836 438.531 109.877 438.531C109.918 438.531 109.959 438.539 109.997 438.555C110.036 438.571 110.07 438.595 110.099 438.624C111.491 439.824 113.855 442.104 114.263 443.424L114.419 443.748Z" fill="#73895D"/>
<path d="M120.359 452.916H120.227C120.152 452.88 120.094 452.816 120.065 452.737C120.036 452.659 120.038 452.573 120.071 452.496L121.919 448.44H122.147C124.812 449.016 127.405 449.89 129.875 451.044C129.95 451.081 130.009 451.144 130.04 451.222C130.071 451.299 130.072 451.386 130.043 451.464C130.007 451.539 129.943 451.597 129.864 451.626C129.786 451.655 129.7 451.653 129.623 451.62C127.27 450.539 124.813 449.699 122.291 449.112L120.647 452.712C120.624 452.77 120.584 452.821 120.533 452.857C120.482 452.893 120.422 452.914 120.359 452.916Z" fill="#73895D"/>
<path d="M130.835 447.156L121.091 445.428L120.107 439.776C120.097 439.694 120.118 439.61 120.167 439.543C120.216 439.476 120.289 439.431 120.371 439.416C120.411 439.407 120.453 439.407 120.494 439.415C120.534 439.423 120.572 439.44 120.606 439.464C120.64 439.487 120.668 439.518 120.69 439.553C120.711 439.588 120.725 439.627 120.731 439.668L121.643 444.888L130.943 446.544C130.984 446.55 131.023 446.564 131.058 446.585C131.094 446.607 131.124 446.635 131.148 446.669C131.171 446.703 131.188 446.741 131.196 446.782C131.204 446.822 131.204 446.864 131.195 446.904C131.18 446.985 131.134 447.057 131.067 447.104C131 447.151 130.916 447.17 130.835 447.156Z" fill="#73895D"/>
<g opacity="0.1">
<path d="M99.6351 455.076C99.5725 455.074 99.512 455.053 99.4609 455.017C99.4098 454.981 99.3703 454.93 99.3471 454.872C99.3314 454.834 99.3232 454.794 99.3231 454.753C99.323 454.712 99.331 454.671 99.3466 454.633C99.3622 454.595 99.3851 454.561 99.414 454.532C99.443 454.503 99.4773 454.48 99.5151 454.464C99.6471 454.464 112.715 449.1 124.823 443.076C136.931 437.052 141.191 433.08 141.239 433.032C141.299 432.976 141.379 432.944 141.461 432.944C141.544 432.944 141.623 432.976 141.683 433.032C141.74 433.094 141.772 433.176 141.772 433.26C141.772 433.345 141.74 433.426 141.683 433.488C141.503 433.644 137.231 437.58 125.111 443.628C112.991 449.676 99.9111 454.98 99.7671 455.04L99.6351 455.076Z" fill="black"/>
<path d="M112.667 453.24C112.618 453.24 112.569 453.227 112.525 453.204C112.481 453.181 112.444 453.148 112.415 453.108C112.359 453.048 112.327 452.969 112.327 452.886C112.327 452.804 112.359 452.724 112.415 452.664C114.197 451.379 115.588 449.627 116.435 447.6L103.391 447.936C103.308 447.936 103.229 447.903 103.17 447.845C103.112 447.786 103.079 447.707 103.079 447.624C103.079 447.54 103.112 447.46 103.17 447.399C103.228 447.339 103.307 447.303 103.391 447.3L117.299 446.94L117.191 447.348C116.384 449.696 114.86 451.731 112.835 453.168C112.787 453.208 112.729 453.233 112.667 453.24Z" fill="black"/>
<path d="M127.931 457.536C127.851 457.537 127.774 457.507 127.715 457.452C127.415 457.164 120.647 450.528 121.019 445.452C113.871 443.974 106.87 441.853 100.103 439.116C100.027 439.083 99.9668 439.02 99.9364 438.943C99.906 438.865 99.9077 438.778 99.9412 438.702C99.9746 438.626 100.037 438.566 100.115 438.535C100.192 438.505 100.279 438.507 100.355 438.54C107.172 441.292 114.225 443.417 121.427 444.888H121.715V445.188C121.079 449.988 128.123 456.924 128.195 456.996C128.252 457.056 128.283 457.136 128.283 457.218C128.283 457.301 128.252 457.38 128.195 457.44C128.161 457.475 128.12 457.501 128.074 457.518C128.028 457.535 127.98 457.541 127.931 457.536Z" fill="black"/>
<path d="M114.419 443.748H105.035C104.952 443.748 104.873 443.715 104.815 443.657C104.756 443.598 104.723 443.519 104.723 443.436C104.723 443.353 104.756 443.274 104.815 443.215C104.873 443.157 104.952 443.124 105.035 443.124H113.435C112.382 441.593 111.108 440.226 109.655 439.068C109.599 439.008 109.567 438.929 109.567 438.846C109.567 438.764 109.599 438.684 109.655 438.624C109.684 438.595 109.719 438.571 109.757 438.555C109.795 438.539 109.836 438.531 109.877 438.531C109.918 438.531 109.959 438.539 109.997 438.555C110.036 438.571 110.07 438.595 110.099 438.624C111.491 439.824 113.855 442.104 114.263 443.424L114.419 443.748Z" fill="black"/>
<path d="M120.359 452.916H120.227C120.152 452.88 120.094 452.816 120.065 452.737C120.036 452.659 120.038 452.573 120.071 452.496L121.919 448.44H122.147C124.812 449.016 127.405 449.89 129.875 451.044C129.95 451.081 130.009 451.144 130.04 451.222C130.071 451.299 130.072 451.386 130.043 451.464C130.007 451.539 129.943 451.597 129.864 451.626C129.786 451.655 129.7 451.653 129.623 451.62C127.27 450.539 124.813 449.699 122.291 449.112L120.647 452.712C120.624 452.77 120.584 452.821 120.533 452.857C120.482 452.893 120.422 452.914 120.359 452.916Z" fill="black"/>
<path d="M130.835 447.156L121.091 445.428L120.107 439.776C120.097 439.694 120.118 439.61 120.167 439.543C120.216 439.476 120.289 439.431 120.371 439.416C120.411 439.407 120.453 439.407 120.494 439.415C120.534 439.424 120.572 439.44 120.606 439.464C120.64 439.487 120.668 439.518 120.69 439.553C120.711 439.588 120.725 439.627 120.731 439.668L121.643 444.888L130.943 446.544C130.984 446.55 131.023 446.564 131.058 446.585C131.094 446.607 131.124 446.635 131.148 446.669C131.171 446.703 131.188 446.741 131.196 446.782C131.204 446.822 131.204 446.864 131.195 446.904C131.18 446.985 131.134 447.057 131.067 447.104C131 447.151 130.916 447.17 130.835 447.156Z" fill="black"/>
</g>
<path d="M178.379 443.364C178.379 443.364 171.515 445.308 169.427 446.664C167.339 448.02 171.035 448.56 175.775 447.864C173.315 449.403 170.995 451.154 168.839 453.096C166.655 455.352 172.547 452.784 172.547 452.784C172.547 452.784 170.147 459.204 173.219 459.684C176.291 460.164 181.835 453.972 181.835 453.972C181.835 453.972 184.439 457.2 185.195 455.736C185.951 454.272 185.267 451.356 185.267 451.356C187.44 452.921 189.708 454.347 192.059 455.628C193.703 456.276 193.199 453.432 193.199 453.432C193.199 453.432 204.983 456.636 206.315 455.832C207.647 455.028 202.319 450.504 200.435 449.052C200.435 449.052 205.619 448.56 204.611 447.732C203.603 446.904 199.127 445.692 195.527 445.116C195.527 445.116 202.967 444.216 203.663 443.52C204.359 442.824 200.831 442.032 200.831 442.032C200.831 442.032 207.443 439.188 206.531 437.46C205.619 435.732 195.731 438.936 195.731 438.936C195.731 438.936 197.591 436.908 195.635 436.728C193.679 436.548 186.035 441.408 186.035 441.408C186.035 441.408 185.399 437.172 183.407 437.04C180.515 436.86 178.379 443.364 178.379 443.364Z" fill="#73895D"/>
<path d="M203.711 455.076C203.782 455.07 203.848 455.042 203.901 454.995C203.953 454.948 203.989 454.885 204.003 454.816C204.016 454.746 204.007 454.674 203.976 454.611C203.945 454.548 203.894 454.496 203.831 454.464C203.699 454.464 190.631 449.1 178.523 443.076C166.415 437.052 162.155 433.08 162.107 433.032C162.047 432.976 161.968 432.944 161.885 432.944C161.803 432.944 161.723 432.976 161.663 433.032C161.606 433.094 161.574 433.176 161.574 433.26C161.574 433.345 161.606 433.426 161.663 433.488C161.843 433.644 166.115 437.58 178.235 443.628C190.355 449.676 203.435 454.98 203.579 455.04L203.711 455.076Z" fill="#73895D"/>
<path d="M190.727 453.24C190.777 453.24 190.825 453.227 190.869 453.204C190.913 453.181 190.951 453.148 190.979 453.108C191.028 453.04 191.049 452.957 191.038 452.874C191.027 452.791 190.984 452.716 190.919 452.664C189.162 451.366 187.797 449.61 186.971 447.588L200.015 447.924C200.098 447.924 200.177 447.891 200.236 447.833C200.294 447.774 200.327 447.695 200.327 447.612C200.327 447.528 200.295 447.447 200.237 447.387C200.178 447.327 200.099 447.291 200.015 447.288L186.107 446.928L186.215 447.336C187.008 449.682 188.514 451.721 190.523 453.168C190.581 453.215 190.653 453.24 190.727 453.24Z" fill="#73895D"/>
<path d="M175.463 457.536C175.543 457.537 175.621 457.507 175.679 457.452C175.979 457.164 182.747 450.528 182.375 445.452C189.524 443.974 196.524 441.853 203.291 439.116C203.366 439.082 203.424 439.021 203.455 438.945C203.487 438.869 203.488 438.785 203.459 438.708C203.427 438.632 203.366 438.571 203.29 438.539C203.213 438.508 203.128 438.508 203.051 438.54C196.23 441.289 189.173 443.414 181.967 444.888H181.679V445.188C182.315 449.988 175.271 456.924 175.211 456.996C175.182 457.025 175.158 457.06 175.143 457.098C175.127 457.136 175.118 457.177 175.118 457.218C175.118 457.259 175.127 457.3 175.143 457.338C175.158 457.376 175.182 457.411 175.211 457.44C175.244 457.473 175.283 457.499 175.327 457.515C175.37 457.532 175.417 457.539 175.463 457.536Z" fill="#73895D"/>
<path d="M188.975 443.748H198.359C198.442 443.748 198.521 443.715 198.58 443.657C198.638 443.598 198.671 443.519 198.671 443.436C198.673 443.395 198.666 443.353 198.651 443.315C198.636 443.276 198.613 443.241 198.583 443.212C198.554 443.182 198.519 443.159 198.48 443.144C198.442 443.129 198.401 443.122 198.359 443.124H189.899C190.956 441.596 192.229 440.23 193.679 439.068C193.736 439.008 193.767 438.929 193.767 438.846C193.767 438.764 193.736 438.684 193.679 438.624C193.65 438.595 193.616 438.571 193.577 438.555C193.539 438.539 193.498 438.531 193.457 438.531C193.416 438.531 193.375 438.539 193.337 438.555C193.299 438.571 193.264 438.595 193.235 438.624C191.843 439.824 189.479 442.104 189.071 443.424L188.975 443.748Z" fill="#73895D"/>
<path d="M183.035 452.916H183.167C183.242 452.88 183.3 452.816 183.329 452.737C183.358 452.659 183.356 452.573 183.323 452.496L181.475 448.44H181.247C178.582 449.016 175.99 449.89 173.519 451.044C173.444 451.081 173.385 451.144 173.354 451.222C173.323 451.299 173.322 451.386 173.351 451.464C173.388 451.539 173.452 451.597 173.53 451.626C173.608 451.655 173.695 451.653 173.771 451.62C176.127 450.537 178.588 449.696 181.115 449.112L182.747 452.712C182.77 452.77 182.81 452.821 182.861 452.857C182.912 452.893 182.973 452.914 183.035 452.916Z" fill="#73895D"/>
<path d="M172.511 447.156L182.255 445.428L183.239 439.776C183.25 439.694 183.228 439.61 183.179 439.543C183.13 439.476 183.057 439.431 182.975 439.416C182.894 439.402 182.811 439.421 182.743 439.468C182.676 439.515 182.63 439.587 182.615 439.668L181.715 444.888L172.403 446.544C172.362 446.55 172.323 446.564 172.288 446.585C172.253 446.607 172.222 446.635 172.199 446.669C172.175 446.703 172.159 446.741 172.151 446.782C172.142 446.822 172.143 446.864 172.151 446.904C172.166 446.985 172.212 447.057 172.279 447.104C172.347 447.151 172.43 447.17 172.511 447.156Z" fill="#73895D"/>
<g opacity="0.1">
<path d="M203.711 455.076C203.782 455.07 203.848 455.042 203.901 454.995C203.953 454.948 203.989 454.885 204.003 454.816C204.016 454.746 204.007 454.674 203.976 454.611C203.945 454.548 203.894 454.496 203.831 454.464C203.699 454.464 190.631 449.1 178.523 443.076C166.415 437.052 162.155 433.08 162.107 433.032C162.047 432.976 161.968 432.944 161.885 432.944C161.803 432.944 161.723 432.976 161.663 433.032C161.606 433.094 161.574 433.176 161.574 433.26C161.574 433.345 161.606 433.426 161.663 433.488C161.843 433.644 166.115 437.58 178.235 443.628C190.355 449.676 203.435 454.98 203.579 455.04L203.711 455.076Z" fill="black"/>
<path d="M190.727 453.24C190.777 453.24 190.825 453.227 190.869 453.204C190.913 453.182 190.951 453.148 190.979 453.108C191.028 453.041 191.049 452.957 191.038 452.874C191.027 452.791 190.984 452.716 190.919 452.664C189.162 451.366 187.797 449.61 186.971 447.588L200.015 447.924C200.098 447.924 200.177 447.891 200.236 447.833C200.294 447.774 200.327 447.695 200.327 447.612C200.327 447.528 200.295 447.448 200.237 447.387C200.178 447.327 200.099 447.291 200.015 447.288L186.107 446.928L186.215 447.336C187.008 449.682 188.514 451.721 190.523 453.168C190.581 453.215 190.653 453.24 190.727 453.24Z" fill="black"/>
<path d="M175.463 457.536C175.543 457.537 175.621 457.507 175.679 457.452C175.979 457.164 182.747 450.528 182.375 445.452C189.524 443.974 196.524 441.853 203.291 439.116C203.366 439.082 203.424 439.021 203.455 438.945C203.487 438.869 203.488 438.785 203.459 438.708C203.427 438.632 203.366 438.571 203.29 438.54C203.213 438.508 203.128 438.508 203.051 438.54C196.23 441.289 189.173 443.414 181.967 444.888H181.679V445.188C182.315 449.988 175.271 456.924 175.211 456.996C175.182 457.025 175.158 457.06 175.143 457.098C175.127 457.136 175.118 457.177 175.118 457.218C175.118 457.259 175.127 457.3 175.143 457.338C175.158 457.377 175.182 457.411 175.211 457.44C175.244 457.473 175.283 457.499 175.327 457.516C175.37 457.532 175.417 457.539 175.463 457.536Z" fill="black"/>
<path d="M188.975 443.748H198.359C198.442 443.748 198.521 443.715 198.58 443.657C198.638 443.598 198.671 443.519 198.671 443.436C198.673 443.395 198.666 443.353 198.651 443.315C198.636 443.276 198.613 443.241 198.583 443.212C198.554 443.182 198.519 443.159 198.48 443.144C198.442 443.129 198.401 443.122 198.359 443.124H189.899C190.956 441.596 192.229 440.23 193.679 439.068C193.736 439.008 193.767 438.929 193.767 438.846C193.767 438.764 193.736 438.684 193.679 438.624C193.65 438.595 193.616 438.571 193.577 438.555C193.539 438.539 193.498 438.531 193.457 438.531C193.416 438.531 193.375 438.539 193.337 438.555C193.299 438.571 193.264 438.595 193.235 438.624C191.843 439.824 189.479 442.104 189.071 443.424L188.975 443.748Z" fill="black"/>
<path d="M183.035 452.916H183.167C183.242 452.88 183.3 452.816 183.329 452.737C183.358 452.659 183.356 452.573 183.323 452.496L181.475 448.44H181.247C178.582 449.016 175.99 449.89 173.519 451.044C173.444 451.081 173.385 451.144 173.354 451.222C173.323 451.299 173.322 451.386 173.351 451.464C173.388 451.539 173.452 451.597 173.53 451.626C173.608 451.655 173.695 451.653 173.771 451.62C176.127 450.537 178.588 449.696 181.115 449.112L182.747 452.712C182.77 452.77 182.81 452.821 182.861 452.857C182.912 452.893 182.973 452.914 183.035 452.916Z" fill="black"/>
<path d="M172.511 447.156L182.255 445.428L183.239 439.776C183.25 439.694 183.228 439.61 183.179 439.543C183.13 439.476 183.057 439.431 182.975 439.416C182.894 439.402 182.811 439.421 182.743 439.468C182.676 439.515 182.63 439.587 182.615 439.668L181.715 444.888L172.403 446.544C172.362 446.55 172.323 446.564 172.288 446.585C172.253 446.607 172.222 446.635 172.199 446.669C172.175 446.703 172.159 446.741 172.151 446.782C172.142 446.822 172.143 446.864 172.151 446.904C172.166 446.985 172.212 447.057 172.279 447.104C172.347 447.151 172.43 447.17 172.511 447.156Z" fill="black"/>
</g>
<path d="M118.835 406.524C117.442 406.895 116.085 407.389 114.779 408C113.819 408.624 115.511 408.876 117.683 408.528C116.557 409.231 115.497 410.035 114.515 410.928C113.507 411.96 116.207 410.784 116.207 410.784C116.207 410.784 115.103 413.736 116.519 413.952C117.935 414.168 120.467 411.324 120.467 411.324C120.467 411.324 121.667 412.812 122.003 412.14C122.182 411.484 122.182 410.792 122.003 410.136C123.002 410.852 124.044 411.505 125.123 412.092C125.879 412.392 125.639 411.084 125.639 411.084C125.639 411.084 131.051 412.548 131.639 412.2C132.227 411.852 129.803 409.8 128.939 409.104C128.939 409.104 131.339 408.876 130.847 408.492C129.533 407.871 128.127 407.466 126.683 407.292C127.949 407.176 129.199 406.931 130.415 406.56C130.727 406.248 129.119 405.876 129.119 405.876C129.119 405.876 132.155 404.58 131.735 403.788C131.315 402.996 126.803 404.46 126.803 404.46C126.803 404.46 127.667 403.524 126.803 403.44C125.939 403.356 122.435 405.6 122.435 405.6C122.435 405.6 122.147 403.656 121.235 403.596C119.855 403.536 118.835 406.524 118.835 406.524Z" fill="#73895D"/>
<path d="M130.499 411.888C130.527 411.89 130.555 411.883 130.579 411.868C130.603 411.853 130.621 411.83 130.631 411.804C130.639 411.787 130.644 411.768 130.644 411.749C130.645 411.73 130.642 411.711 130.635 411.693C130.629 411.675 130.618 411.659 130.605 411.645C130.592 411.631 130.577 411.62 130.559 411.612C130.559 411.612 124.475 409.212 118.943 406.392C116.252 405.177 113.724 403.629 111.419 401.784C111.405 401.771 111.388 401.762 111.37 401.756C111.353 401.749 111.334 401.747 111.315 401.748C111.296 401.749 111.277 401.754 111.26 401.762C111.243 401.77 111.228 401.782 111.215 401.796C111.202 401.81 111.193 401.827 111.187 401.845C111.18 401.863 111.178 401.882 111.179 401.901C111.18 401.919 111.185 401.938 111.193 401.955C111.201 401.972 111.213 401.987 111.227 402C113.553 403.872 116.11 405.437 118.835 406.656C124.367 409.416 130.391 411.864 130.463 411.888H130.499Z" fill="#73895D"/>
<path d="M124.547 411.048C124.569 411.049 124.59 411.044 124.61 411.033C124.629 411.022 124.644 411.007 124.655 410.988C124.668 410.976 124.679 410.961 124.686 410.944C124.693 410.928 124.697 410.91 124.697 410.892C124.697 410.874 124.693 410.856 124.686 410.84C124.679 410.823 124.668 410.808 124.655 410.796C123.852 410.193 123.226 409.385 122.843 408.456L128.843 408.612C128.862 408.614 128.88 408.611 128.897 408.606C128.915 408.6 128.931 408.59 128.944 408.578C128.958 408.565 128.969 408.55 128.976 408.533C128.984 408.517 128.987 408.498 128.987 408.48C128.989 408.46 128.986 408.44 128.98 408.421C128.973 408.402 128.963 408.385 128.95 408.37C128.936 408.356 128.92 408.344 128.901 408.336C128.883 408.328 128.863 408.324 128.843 408.324L122.471 408.156V408.348C122.833 409.426 123.526 410.363 124.451 411.024L124.547 411.048Z" fill="#73895D"/>
<path d="M117.539 413.028C117.574 413.042 117.613 413.042 117.647 413.028C117.779 412.896 120.887 409.86 120.719 407.508C124 406.833 127.214 405.861 130.319 404.604C130.337 404.596 130.352 404.585 130.365 404.571C130.378 404.557 130.389 404.541 130.395 404.523C130.402 404.505 130.405 404.486 130.404 404.467C130.404 404.448 130.399 404.429 130.391 404.412C130.385 404.395 130.375 404.379 130.362 404.367C130.349 404.354 130.334 404.343 130.317 404.337C130.3 404.33 130.282 404.327 130.264 404.327C130.245 404.328 130.228 404.332 130.211 404.34C127.082 405.599 123.845 406.571 120.539 407.244H120.407V407.388C120.695 409.608 117.467 412.764 117.431 412.8C117.418 412.813 117.407 412.829 117.4 412.847C117.393 412.864 117.389 412.883 117.389 412.902C117.389 412.921 117.393 412.94 117.4 412.957C117.407 412.975 117.418 412.991 117.431 413.004C117.447 413.015 117.464 413.023 117.483 413.027C117.501 413.031 117.52 413.031 117.539 413.028Z" fill="#73895D"/>
<path d="M123.743 406.704H128.051C128.084 406.695 128.112 406.675 128.133 406.648C128.153 406.621 128.164 406.588 128.164 406.554C128.164 406.52 128.153 406.487 128.133 406.46C128.112 406.433 128.084 406.413 128.051 406.404H124.175C124.659 405.701 125.241 405.07 125.903 404.532C125.917 404.519 125.927 404.503 125.935 404.485C125.942 404.468 125.946 404.449 125.946 404.43C125.946 404.411 125.942 404.392 125.935 404.375C125.927 404.357 125.917 404.341 125.903 404.328C125.89 404.315 125.874 404.304 125.856 404.297C125.839 404.289 125.82 404.286 125.801 404.286C125.782 404.286 125.763 404.289 125.746 404.297C125.728 404.304 125.713 404.315 125.699 404.328C124.925 404.922 124.276 405.665 123.791 406.512L123.743 406.704Z" fill="#73895D"/>
<path d="M121.019 410.904H121.079C121.097 410.896 121.112 410.885 121.125 410.871C121.138 410.857 121.149 410.841 121.155 410.823C121.162 410.805 121.165 410.786 121.164 410.767C121.164 410.748 121.159 410.729 121.151 410.712L120.299 408.852H120.191C118.968 409.113 117.78 409.515 116.651 410.052C116.616 410.068 116.589 410.097 116.575 410.133C116.562 410.169 116.563 410.209 116.579 410.244C116.595 410.279 116.624 410.306 116.66 410.32C116.696 410.333 116.736 410.332 116.771 410.316C117.848 409.804 118.974 409.402 120.131 409.116L120.887 410.772C120.89 410.806 120.905 410.838 120.929 410.862C120.953 410.887 120.985 410.901 121.019 410.904Z" fill="#73895D"/>
<path d="M116.195 408.264L120.659 407.472L121.103 404.88C121.094 404.85 121.076 404.824 121.051 404.806C121.026 404.787 120.996 404.777 120.965 404.777C120.934 404.777 120.904 404.787 120.879 404.806C120.854 404.824 120.836 404.85 120.827 404.88L120.407 407.28L116.135 408.036C116.097 408.036 116.06 408.051 116.033 408.078C116.006 408.105 115.991 408.142 115.991 408.18C115.991 408.218 116.006 408.255 116.033 408.282C116.06 408.309 116.097 408.324 116.135 408.324L116.195 408.264Z" fill="#73895D"/>
<g opacity="0.1">
<path d="M130.499 411.888C130.527 411.89 130.555 411.883 130.579 411.868C130.603 411.853 130.621 411.83 130.631 411.804C130.639 411.787 130.644 411.768 130.644 411.749C130.645 411.73 130.642 411.711 130.635 411.693C130.629 411.675 130.618 411.659 130.605 411.645C130.592 411.631 130.577 411.62 130.559 411.612C130.559 411.612 124.475 409.212 118.943 406.392C116.252 405.177 113.724 403.629 111.419 401.784C111.405 401.771 111.388 401.762 111.37 401.756C111.353 401.749 111.334 401.747 111.315 401.748C111.296 401.749 111.277 401.754 111.26 401.762C111.243 401.77 111.228 401.782 111.215 401.796C111.202 401.81 111.193 401.827 111.187 401.845C111.18 401.863 111.178 401.882 111.179 401.901C111.18 401.919 111.185 401.938 111.193 401.955C111.201 401.972 111.213 401.987 111.227 402C113.553 403.872 116.11 405.437 118.835 406.656C124.367 409.416 130.391 411.864 130.463 411.888H130.499Z" fill="black"/>
<path d="M124.547 411.048C124.569 411.049 124.59 411.044 124.609 411.033C124.628 411.023 124.644 411.007 124.655 410.988C124.668 410.976 124.679 410.961 124.686 410.944C124.693 410.928 124.696 410.91 124.696 410.892C124.696 410.874 124.693 410.856 124.686 410.84C124.679 410.823 124.668 410.808 124.655 410.796C123.851 410.193 123.225 409.385 122.843 408.456L128.843 408.612C128.861 408.614 128.88 408.612 128.897 408.606C128.915 408.6 128.931 408.59 128.944 408.578C128.958 408.566 128.969 408.55 128.976 408.534C128.983 408.517 128.987 408.499 128.987 408.48C128.989 408.46 128.986 408.44 128.98 408.421C128.973 408.402 128.963 408.385 128.949 408.37C128.936 408.356 128.919 408.344 128.901 408.336C128.883 408.328 128.863 408.324 128.843 408.324L122.471 408.156V408.348C122.833 409.426 123.526 410.363 124.451 411.024L124.547 411.048Z" fill="black"/>
<path d="M117.539 413.028C117.574 413.042 117.612 413.042 117.647 413.028C117.779 412.896 120.887 409.86 120.719 407.508C124 406.833 127.214 405.861 130.319 404.604C130.336 404.596 130.352 404.585 130.365 404.571C130.378 404.557 130.388 404.541 130.395 404.523C130.402 404.505 130.405 404.486 130.404 404.467C130.404 404.448 130.399 404.429 130.391 404.412C130.385 404.395 130.375 404.38 130.362 404.367C130.349 404.354 130.334 404.343 130.317 404.337C130.3 404.33 130.282 404.327 130.264 404.327C130.245 404.328 130.227 404.332 130.211 404.34C127.082 405.6 123.844 406.572 120.539 407.244H120.407V407.388C120.695 409.608 117.467 412.764 117.431 412.8C117.418 412.813 117.407 412.829 117.4 412.847C117.392 412.864 117.389 412.883 117.389 412.902C117.389 412.921 117.392 412.94 117.4 412.957C117.407 412.975 117.418 412.991 117.431 413.004C117.447 413.015 117.464 413.023 117.483 413.027C117.501 413.031 117.52 413.031 117.539 413.028Z" fill="black"/>
<path d="M123.743 406.704H128.051C128.084 406.695 128.112 406.675 128.133 406.648C128.153 406.621 128.164 406.588 128.164 406.554C128.164 406.52 128.153 406.487 128.133 406.46C128.112 406.433 128.084 406.413 128.051 406.404H124.175C124.659 405.701 125.241 405.07 125.903 404.532C125.916 404.519 125.927 404.503 125.934 404.485C125.942 404.468 125.945 404.449 125.945 404.43C125.945 404.411 125.942 404.392 125.934 404.375C125.927 404.357 125.916 404.342 125.903 404.328C125.89 404.315 125.874 404.304 125.856 404.297C125.839 404.29 125.82 404.286 125.801 404.286C125.782 404.286 125.763 404.29 125.746 404.297C125.728 404.304 125.712 404.315 125.699 404.328C124.925 404.923 124.276 405.665 123.791 406.512L123.743 406.704Z" fill="black"/>
<path d="M121.019 410.904H121.079C121.096 410.896 121.112 410.885 121.125 410.871C121.138 410.857 121.148 410.841 121.155 410.823C121.162 410.805 121.165 410.786 121.164 410.767C121.164 410.748 121.159 410.729 121.151 410.712L120.299 408.852H120.191C118.968 409.113 117.78 409.515 116.651 410.052C116.616 410.068 116.589 410.097 116.575 410.133C116.562 410.169 116.563 410.209 116.579 410.244C116.595 410.279 116.624 410.306 116.66 410.32C116.696 410.333 116.736 410.332 116.771 410.316C117.848 409.804 118.974 409.402 120.131 409.116L120.887 410.772C120.89 410.806 120.905 410.838 120.929 410.862C120.953 410.887 120.985 410.901 121.019 410.904Z" fill="black"/>
<path d="M116.195 408.264L120.659 407.472L121.103 404.88C121.094 404.85 121.076 404.824 121.051 404.806C121.026 404.787 120.996 404.777 120.965 404.777C120.934 404.777 120.904 404.787 120.879 404.806C120.854 404.824 120.836 404.85 120.827 404.88L120.407 407.28L116.135 408.036C116.097 408.036 116.06 408.051 116.033 408.078C116.006 408.105 115.991 408.142 115.991 408.18C115.991 408.218 116.006 408.255 116.033 408.282C116.06 408.309 116.097 408.324 116.135 408.324L116.195 408.264Z" fill="black"/>
</g>
<path d="M141.544 235.05C143.534 206.934 122.356 182.527 94.2397 180.537C66.1236 178.546 41.7173 199.725 39.7266 227.841C37.7359 255.957 58.9146 280.363 87.0306 282.354C115.147 284.345 139.553 263.166 141.544 235.05Z" fill="#73895D"/>
<path d="M276.964 220.859C282.455 181.134 254.704 144.479 214.979 138.988C175.254 133.497 138.599 161.249 133.108 200.974C127.617 240.699 155.369 277.353 195.094 282.844C234.819 288.336 271.473 260.584 276.964 220.859Z" fill="#73895D"/>
<path d="M184.74 270.959L151.8 335.831L157.107 338.526L190.047 273.654L184.74 270.959Z" fill="#455A64"/>
<path d="M124.544 265.136L119.485 268.291L151.825 320.158L156.884 317.003L124.544 265.136Z" fill="#455A64"/>
<path d="M159.419 259.56V415.92C159.381 416.359 159.226 416.779 158.971 417.137C158.715 417.496 158.369 417.78 157.967 417.96C156.875 418.511 155.669 418.798 154.445 418.798C153.222 418.798 152.016 418.511 150.923 417.96C150.521 417.78 150.175 417.496 149.92 417.137C149.665 416.779 149.51 416.359 149.471 415.92V259.56H159.419Z" fill="#455A64"/>
<path d="M227.783 192.324C237.143 162.84 247.127 151.308 240.791 147.708C228.763 140.9 215.041 137.667 201.239 138.388C187.437 139.109 174.127 143.754 162.873 151.777C151.619 159.801 142.889 170.869 137.708 183.683C132.527 196.496 131.111 210.522 133.626 224.113C136.141 237.703 142.482 250.294 151.905 260.405C161.327 270.516 173.44 277.728 186.82 281.194C200.2 284.659 214.29 284.234 227.437 279.968C240.583 275.702 252.239 267.773 261.035 257.112C239.519 263.388 215.639 230.58 227.783 192.324Z" fill="#73895D"/>
<path opacity="0.1" d="M227.783 192.324C237.143 162.84 247.127 151.308 240.791 147.708C228.763 140.9 215.041 137.667 201.239 138.388C187.437 139.109 174.127 143.754 162.873 151.777C151.619 159.801 142.889 170.869 137.708 183.683C132.527 196.496 131.111 210.522 133.626 224.113C136.141 237.703 142.482 250.294 151.905 260.405C161.327 270.516 173.44 277.728 186.82 281.194C200.2 284.659 214.29 284.234 227.437 279.968C240.583 275.702 252.239 267.773 261.035 257.112C239.519 263.388 215.639 230.58 227.783 192.324Z" fill="black"/>
<path d="M90.6231 180.42C79.9201 180.399 69.4838 183.759 60.8031 190.02C59.4231 221.22 85.8831 251.604 78.4911 261.816C71.0991 272.028 52.8351 265.776 46.5111 257.112C51.0114 264.851 57.4682 271.27 65.2333 275.724C72.9984 280.179 81.7987 282.513 90.7509 282.492C99.703 282.471 108.492 280.095 116.236 275.603C123.98 271.112 130.406 264.662 134.87 256.902C139.333 249.142 141.677 240.344 141.666 231.392C141.654 222.44 139.289 213.648 134.806 205.899C130.323 198.15 123.881 191.717 116.125 187.245C108.37 182.773 99.5753 180.419 90.6231 180.42Z" fill="#73895D"/>
<path opacity="0.1" d="M90.6231 180.42C79.9201 180.399 69.4838 183.759 60.8031 190.02C59.4231 221.22 85.8831 251.604 78.4911 261.816C71.0991 272.028 52.8351 265.776 46.5111 257.112C51.0114 264.851 57.4682 271.27 65.2333 275.724C72.9984 280.179 81.7987 282.513 90.7509 282.492C99.703 282.471 108.492 280.095 116.236 275.603C123.98 271.112 130.406 264.662 134.87 256.902C139.333 249.142 141.677 240.344 141.666 231.392C141.654 222.44 139.289 213.648 134.806 205.899C130.323 198.15 123.881 191.717 116.125 187.245C108.37 182.773 99.5753 180.419 90.6231 180.42Z" fill="black"/>
<path d="M220.652 242.624C257.215 206.062 257.215 146.782 220.653 110.22C184.09 73.6574 124.811 73.6574 88.2482 110.22C51.6857 146.782 51.6857 206.062 88.2482 242.624C124.811 279.187 184.09 279.187 220.652 242.624Z" fill="#73895D"/>
<path d="M245.579 197.82C242.019 212.957 234.744 226.968 224.411 238.588C214.079 250.208 201.014 259.07 186.397 264.375C171.78 269.68 156.072 271.259 140.692 268.971C125.312 266.683 110.744 260.599 98.3043 251.269C85.8648 241.94 75.9457 229.658 69.443 215.533C62.9403 201.408 60.0589 185.886 61.0593 170.369C62.0596 154.852 66.91 139.828 75.1724 126.655C83.4347 113.482 94.8487 102.576 108.383 94.92C100.253 99.5193 92.8554 105.307 86.4352 112.092C81.7278 132.126 83.7539 153.152 92.2 171.918C100.646 190.684 115.041 206.144 133.158 215.904C151.276 225.665 172.104 229.183 192.422 225.914C212.74 222.645 231.414 212.771 245.555 197.82H245.579Z" fill="#73895D"/>
<path opacity="0.1" d="M245.579 197.82C242.019 212.957 234.744 226.968 224.411 238.588C214.079 250.208 201.014 259.07 186.397 264.375C171.78 269.68 156.072 271.259 140.692 268.971C125.312 266.683 110.744 260.599 98.3043 251.269C85.8648 241.94 75.9457 229.658 69.443 215.533C62.9403 201.408 60.0589 185.886 61.0593 170.369C62.0596 154.852 66.91 139.828 75.1724 126.655C83.4347 113.482 94.8487 102.576 108.383 94.92C100.253 99.5193 92.8554 105.307 86.4352 112.092C81.7278 132.126 83.7539 153.152 92.2 171.918C100.646 190.684 115.041 206.144 133.158 215.904C151.276 225.665 172.104 229.183 192.422 225.914C212.74 222.645 231.414 212.771 245.555 197.82H245.579Z" fill="black"/>
<path d="M371.165 170.29C373.911 153.501 362.527 137.664 345.738 134.918C328.948 132.171 313.111 143.556 310.365 160.345C307.619 177.134 319.003 192.971 335.792 195.718C352.582 198.464 368.419 187.08 371.165 170.29Z" fill="#73895D"/>
<path d="M453.311 158.318C456.295 134.299 439.242 112.41 415.223 109.426C391.204 106.443 369.315 123.496 366.332 147.515C363.349 171.534 380.401 193.423 404.42 196.406C428.439 199.389 450.328 182.337 453.311 158.318Z" fill="#73895D"/>
<path d="M397.595 189.166L377.71 228.326L380.909 229.951L400.794 190.79L397.595 189.166Z" fill="#455A64"/>
<path d="M360.684 185.992L357.634 187.88L377.019 219.194L380.069 217.305L360.684 185.992Z" fill="#455A64"/>
<path d="M382.307 182.292V276.66C382.275 276.919 382.176 277.166 382.02 277.376C381.865 277.586 381.658 277.753 381.419 277.86C380.76 278.191 380.033 278.364 379.295 278.364C378.558 278.364 377.83 278.191 377.171 277.86C376.934 277.752 376.729 277.585 376.576 277.375C376.422 277.165 376.326 276.918 376.295 276.66V182.292H382.307Z" fill="#455A64"/>
<path d="M423.563 141.708C429.215 123.912 435.239 116.952 431.411 114.78C424.152 110.667 415.869 108.712 407.537 109.144C399.205 109.576 391.169 112.378 384.374 117.22C377.58 122.063 372.308 128.744 369.18 136.479C366.052 144.214 365.197 152.681 366.716 160.885C368.234 169.089 372.063 176.689 377.752 182.792C383.442 188.895 390.755 193.247 398.833 195.337C406.91 197.426 415.417 197.166 423.352 194.588C431.287 192.009 438.321 187.219 443.627 180.78C430.643 184.596 416.231 164.796 423.563 141.708Z" fill="#73895D"/>
<path opacity="0.1" d="M423.563 141.708C429.215 123.912 435.239 116.952 431.411 114.78C424.152 110.667 415.869 108.712 407.537 109.144C399.205 109.576 391.169 112.378 384.374 117.22C377.58 122.063 372.308 128.744 369.18 136.479C366.052 144.214 365.197 152.681 366.716 160.885C368.234 169.089 372.063 176.689 377.752 182.792C383.442 188.895 390.755 193.247 398.833 195.337C406.91 197.426 415.417 197.166 423.352 194.588C431.287 192.009 438.321 187.219 443.627 180.78C430.643 184.596 416.231 164.796 423.563 141.708Z" fill="black"/>
<path d="M340.835 134.52C334.373 134.513 328.074 136.546 322.835 140.328C322.007 159.144 337.979 177.528 333.515 183.66C329.051 189.792 318.047 186.06 314.219 180.804C316.935 185.476 320.832 189.352 325.519 192.041C330.206 194.731 335.519 196.14 340.923 196.128C346.327 196.115 351.632 194.681 356.307 191.97C360.982 189.258 364.861 185.365 367.555 180.68C370.249 175.995 371.663 170.684 371.655 165.28C371.647 159.876 370.218 154.569 367.511 149.892C364.804 145.215 360.914 141.333 356.231 138.634C351.549 135.936 346.239 134.517 340.835 134.52Z" fill="#73895D"/>
<path opacity="0.1" d="M340.835 134.52C334.373 134.513 328.074 136.546 322.835 140.328C322.007 159.144 337.979 177.528 333.515 183.66C329.051 189.792 318.047 186.06 314.219 180.804C316.935 185.476 320.832 189.352 325.519 192.041C330.206 194.731 335.519 196.14 340.923 196.128C346.327 196.115 351.632 194.681 356.307 191.97C360.982 189.258 364.861 185.365 367.555 180.68C370.249 175.995 371.663 170.684 371.655 165.28C371.647 159.876 370.218 154.569 367.511 149.892C364.804 145.215 360.914 141.333 356.231 138.634C351.549 135.936 346.239 134.517 340.835 134.52Z" fill="black"/>
<path d="M379.295 188.616C410.504 188.616 435.803 163.316 435.803 132.108C435.803 100.899 410.504 75.6 379.295 75.6C348.087 75.6 322.787 100.899 322.787 132.108C322.787 163.316 348.087 188.616 379.295 188.616Z" fill="#73895D"/>
<path d="M434.303 145.02C432.158 154.162 427.769 162.626 421.531 169.646C415.294 176.666 407.406 182.02 398.579 185.226C389.753 188.432 380.267 189.387 370.978 188.006C361.69 186.625 352.892 182.951 345.38 177.316C337.868 171.681 331.879 164.263 327.954 155.732C324.029 147.201 322.292 137.826 322.899 128.455C323.507 119.085 326.441 110.013 331.435 102.06C336.429 94.108 343.326 87.5255 351.503 82.908C346.617 85.7012 342.17 89.1987 338.303 93.288C336.361 101.581 336.318 110.205 338.178 118.517C340.037 126.828 343.751 134.612 349.042 141.286C354.333 147.961 361.064 153.353 368.732 157.061C376.4 160.768 384.806 162.694 393.323 162.696C400.997 162.693 408.59 161.123 415.636 158.084C422.682 155.045 429.034 150.599 434.303 145.02Z" fill="#73895D"/>
<path opacity="0.1" d="M434.303 145.02C432.158 154.162 427.769 162.626 421.531 169.646C415.294 176.666 407.406 182.02 398.579 185.226C389.753 188.432 380.267 189.387 370.978 188.006C361.69 186.625 352.892 182.951 345.38 177.316C337.868 171.681 331.879 164.263 327.954 155.732C324.029 147.201 322.292 137.826 322.899 128.455C323.507 119.085 326.441 110.013 331.435 102.06C336.429 94.108 343.326 87.5255 351.503 82.908C346.617 85.7012 342.17 89.1987 338.303 93.288C336.361 101.581 336.318 110.205 338.178 118.517C340.037 126.828 343.751 134.612 349.042 141.286C354.333 147.961 361.064 153.353 368.732 157.061C376.4 160.768 384.806 162.694 393.323 162.696C400.997 162.693 408.59 161.123 415.636 158.084C422.682 155.045 429.034 150.599 434.303 145.02Z" fill="black"/>
<path d="M326.723 253.284C326.333 253.537 326.009 253.879 325.778 254.281C325.546 254.684 325.414 255.136 325.391 255.6C325.391 256.452 325.979 256.8 326.723 256.368C327.115 256.116 327.441 255.775 327.674 255.372C327.908 254.969 328.043 254.517 328.067 254.052C328.067 253.2 327.467 252.852 326.723 253.284Z" fill="#73895D"/>
<path d="M312.167 368.136C311.534 368.133 310.913 367.963 310.367 367.644L271.583 345.252C269.493 344.043 267.758 342.305 266.551 340.214C265.344 338.122 264.708 335.751 264.707 333.336V288.54C264.707 287.585 265.086 286.67 265.762 285.994C266.437 285.319 267.352 284.94 268.307 284.94C269.262 284.94 270.178 285.319 270.853 285.994C271.528 286.67 271.907 287.585 271.907 288.54V333.336C271.907 334.486 272.209 335.617 272.785 336.613C273.36 337.609 274.187 338.437 275.183 339.012L313.967 361.416C314.655 361.812 315.192 362.424 315.496 363.156C315.8 363.889 315.854 364.701 315.649 365.468C315.443 366.234 314.991 366.911 314.361 367.393C313.732 367.876 312.96 368.137 312.167 368.136Z" fill="#37474F"/>
<path d="M253.583 401.808C252.95 401.81 252.328 401.64 251.783 401.316L212.987 378.924C210.9 377.712 209.166 375.974 207.96 373.883C206.754 371.792 206.116 369.422 206.111 367.008V322.212C206.111 321.257 206.49 320.342 207.166 319.666C207.841 318.991 208.756 318.612 209.711 318.612C210.666 318.612 211.582 318.991 212.257 319.666C212.932 320.342 213.311 321.257 213.311 322.212V367.008C213.313 368.158 213.617 369.287 214.192 370.283C214.767 371.279 215.593 372.107 216.587 372.684L255.383 395.088C256.071 395.484 256.608 396.095 256.912 396.828C257.216 397.561 257.27 398.373 257.065 399.14C256.859 399.906 256.407 400.583 255.777 401.065C255.148 401.548 254.376 401.809 253.583 401.808Z" fill="#37474F"/>
<path d="M370.583 334.368C369.954 334.368 369.336 334.198 368.795 333.876L330.035 311.484C327.946 310.277 326.211 308.541 325.005 306.452C323.798 304.363 323.161 301.993 323.159 299.58V254.784C323.159 253.829 323.538 252.914 324.214 252.238C324.889 251.563 325.804 251.184 326.759 251.184C327.714 251.184 328.63 251.563 329.305 252.238C329.98 252.914 330.359 253.829 330.359 254.784V299.58C330.362 300.728 330.666 301.855 331.241 302.849C331.816 303.843 332.641 304.669 333.635 305.244L372.395 327.6C373.084 327.996 373.622 328.609 373.925 329.343C374.229 330.077 374.282 330.89 374.075 331.657C373.868 332.424 373.414 333.101 372.782 333.583C372.151 334.064 371.377 334.324 370.583 334.32V334.368Z" fill="#37474F"/>
<path d="M260.291 397.344V438.792C260.259 439.153 260.13 439.5 259.919 439.795C259.709 440.09 259.423 440.324 259.091 440.472C258.196 440.922 257.207 441.156 256.205 441.156C255.203 441.156 254.215 440.922 253.319 440.472C252.988 440.324 252.702 440.09 252.491 439.795C252.28 439.5 252.152 439.153 252.119 438.792V397.344H260.291Z" fill="#455A64"/>
<path d="M226.079 377.844V419.304C226.048 419.664 225.921 420.01 225.709 420.304C225.498 420.597 225.211 420.828 224.879 420.972C223.983 421.427 222.992 421.665 221.987 421.665C220.982 421.665 219.991 421.427 219.095 420.972C218.765 420.826 218.479 420.594 218.268 420.301C218.057 420.008 217.929 419.664 217.895 419.304V377.844H226.079Z" fill="#455A64"/>
<path d="M377.171 329.856V371.316C377.137 371.675 377.007 372.019 376.797 372.312C376.586 372.605 376.301 372.837 375.971 372.984C375.075 373.439 374.084 373.677 373.079 373.677C372.074 373.677 371.083 373.439 370.187 372.984C369.856 372.839 369.57 372.608 369.359 372.314C369.148 372.021 369.019 371.676 368.987 371.316V329.856H377.171Z" fill="#455A64"/>
<path d="M342.947 310.368V351.828C342.913 352.187 342.783 352.531 342.573 352.824C342.362 353.117 342.077 353.349 341.747 353.496C340.853 353.951 339.864 354.189 338.861 354.189C337.858 354.189 336.869 353.951 335.975 353.496C335.646 353.349 335.361 353.117 335.15 352.824C334.939 352.531 334.81 352.187 334.775 351.828V310.368H342.947Z" fill="#455A64"/>
<path d="M198.095 332.4L197.375 331.992C196.771 331.596 196.269 331.065 195.908 330.439C195.548 329.814 195.339 329.113 195.299 328.392V321.936C195.336 321.215 195.544 320.512 195.905 319.887C196.265 319.261 196.769 318.729 197.375 318.336L329.699 241.932C330.345 241.607 331.058 241.438 331.781 241.438C332.504 241.438 333.217 241.607 333.863 241.932L334.583 242.352C335.188 242.747 335.691 243.279 336.051 243.904C336.412 244.529 336.62 245.231 336.659 245.952V252.408C336.617 253.128 336.408 253.829 336.048 254.454C335.687 255.079 335.186 255.611 334.583 256.008L202.247 332.4C201.604 332.726 200.892 332.896 200.171 332.896C199.45 332.896 198.739 332.726 198.095 332.4Z" fill="#37474F"/>
<path d="M205.043 325.2L195.911 319.92C195.531 320.539 195.32 321.246 195.299 321.972V328.428C195.339 329.149 195.548 329.85 195.908 330.475C196.269 331.101 196.771 331.633 197.375 332.028L198.095 332.436C198.739 332.762 199.45 332.932 200.171 332.932C200.892 332.932 201.604 332.762 202.247 332.436L205.043 330.828V325.2Z" fill="#263238"/>
<path d="M198.095 352.116L197.375 351.708C196.77 351.314 196.267 350.782 195.906 350.157C195.545 349.531 195.337 348.829 195.299 348.108V341.652C195.336 340.931 195.544 340.228 195.905 339.603C196.265 338.977 196.769 338.445 197.375 338.052L329.699 261.6C330.345 261.275 331.058 261.106 331.781 261.106C332.504 261.106 333.217 261.275 333.863 261.6L334.583 262.02C335.188 262.415 335.691 262.947 336.051 263.572C336.412 264.197 336.62 264.899 336.659 265.62V272.076C336.618 272.797 336.409 273.497 336.049 274.123C335.688 274.748 335.186 275.28 334.583 275.676L202.247 352.116C201.605 352.448 200.894 352.62 200.171 352.62C199.449 352.62 198.737 352.448 198.095 352.116Z" fill="#37474F"/>
<path d="M205.043 344.88L195.911 339.6C195.532 340.219 195.321 340.927 195.299 341.652V348.108C195.337 348.829 195.545 349.531 195.906 350.157C196.267 350.782 196.77 351.314 197.375 351.708L198.095 352.116C198.737 352.448 199.449 352.621 200.171 352.621C200.894 352.621 201.605 352.448 202.247 352.116L205.043 350.508V344.88Z" fill="#263238"/>
<path d="M198.095 371.868L197.375 371.448C196.769 371.055 196.265 370.523 195.905 369.898C195.544 369.272 195.336 368.569 195.299 367.848V361.392C195.337 360.671 195.545 359.969 195.906 359.343C196.267 358.718 196.77 358.186 197.375 357.792L329.699 281.388C330.345 281.063 331.058 280.894 331.781 280.894C332.504 280.894 333.217 281.063 333.863 281.388L334.583 281.808C335.188 282.203 335.691 282.735 336.051 283.36C336.412 283.985 336.62 284.687 336.659 285.408V291.864C336.618 292.585 336.409 293.285 336.049 293.911C335.688 294.536 335.186 295.068 334.583 295.464L202.247 371.868C201.604 372.194 200.892 372.364 200.171 372.364C199.45 372.364 198.739 372.194 198.095 371.868Z" fill="#37474F"/>
<path d="M205.043 364.62L195.911 359.34C195.534 359.96 195.323 360.667 195.299 361.392V367.848C195.336 368.569 195.544 369.272 195.905 369.898C196.265 370.523 196.769 371.055 197.375 371.448L198.095 371.868C198.739 372.194 199.45 372.364 200.171 372.364C200.892 372.364 201.604 372.194 202.247 371.868L205.043 370.248V364.62Z" fill="#263238"/>
<path d="M205.043 383.82V384.648C205.083 385.37 205.294 386.072 205.656 386.698C206.019 387.323 206.525 387.855 207.131 388.248L212.723 391.476C213.367 391.802 214.078 391.972 214.799 391.972C215.521 391.972 216.232 391.802 216.875 391.476L349.235 315.072C349.841 314.679 350.345 314.147 350.706 313.522C351.067 312.896 351.274 312.193 351.311 311.472V310.644C351.273 309.923 351.065 309.221 350.705 308.595C350.344 307.97 349.84 307.438 349.235 307.044L343.643 303.816C343 303.49 342.288 303.32 341.567 303.32C340.846 303.32 340.135 303.49 339.491 303.816L207.131 380.22C206.524 380.613 206.018 381.144 205.655 381.769C205.292 382.395 205.083 383.098 205.043 383.82Z" fill="#37474F"/>
<path d="M214.835 381.42V391.968C214.113 391.982 213.399 391.813 212.759 391.476L207.167 388.248C206.561 387.855 206.055 387.324 205.692 386.698C205.33 386.072 205.12 385.37 205.079 384.648V383.82C205.119 383.098 205.328 382.395 205.691 381.769C206.054 381.144 206.56 380.613 207.167 380.22L209.963 378.6L214.835 381.42Z" fill="#263238"/>
<path d="M222.107 393.672V394.5C222.149 395.22 222.358 395.921 222.719 396.546C223.079 397.171 223.581 397.703 224.183 398.1L229.775 401.328C230.421 401.653 231.134 401.822 231.857 401.822C232.58 401.822 233.293 401.653 233.939 401.328L366.263 324.924C366.869 324.531 367.373 323.999 367.734 323.374C368.095 322.748 368.302 322.045 368.339 321.324V320.496C368.301 319.775 368.093 319.073 367.733 318.447C367.372 317.822 366.868 317.29 366.263 316.896L360.671 313.668C360.028 313.342 359.316 313.172 358.595 313.172C357.874 313.172 357.163 313.342 356.519 313.668L224.183 390.072C223.579 390.467 223.076 390.999 222.715 391.624C222.354 392.249 222.146 392.951 222.107 393.672Z" fill="#37474F"/>
<path d="M231.863 391.272V401.82C231.141 401.831 230.428 401.662 229.787 401.328L224.195 398.1C223.593 397.703 223.091 397.171 222.731 396.546C222.37 395.921 222.161 395.22 222.119 394.5V393.672C222.158 392.951 222.366 392.249 222.727 391.624C223.088 390.999 223.591 390.467 224.195 390.072L226.991 388.452L231.863 391.272Z" fill="#263238"/>
<path d="M239.171 403.512V404.4C239.208 405.121 239.416 405.824 239.776 406.45C240.137 407.075 240.641 407.607 241.247 408L246.839 411.228C247.481 411.56 248.193 411.733 248.915 411.733C249.637 411.733 250.349 411.56 250.991 411.228L383.327 334.8C383.93 334.404 384.432 333.872 384.793 333.247C385.153 332.622 385.362 331.921 385.403 331.2V330.372C385.364 329.651 385.156 328.95 384.795 328.324C384.435 327.699 383.932 327.167 383.327 326.772L377.735 323.544C377.089 323.219 376.376 323.05 375.653 323.05C374.93 323.05 374.217 323.219 373.571 323.544L241.235 399.912C240.634 400.309 240.133 400.841 239.775 401.467C239.417 402.092 239.21 402.792 239.171 403.512Z" fill="#37474F"/>
<path d="M248.915 401.112V411.672C248.191 411.685 247.477 411.511 246.839 411.168L241.235 408C240.629 407.607 240.125 407.075 239.765 406.45C239.404 405.824 239.196 405.121 239.159 404.4V403.572C239.199 402.851 239.408 402.15 239.768 401.525C240.129 400.899 240.631 400.368 241.235 399.972L244.031 398.364L248.915 401.112Z" fill="#263238"/>
<path d="M202.247 321.12L334.583 244.728C335.723 244.056 336.659 244.596 336.659 245.928V252.384C336.617 253.104 336.408 253.805 336.048 254.43C335.687 255.055 335.186 255.587 334.583 255.984L202.247 332.4C201.107 333.06 200.171 332.532 200.171 331.2V324.72C200.212 324 200.421 323.299 200.782 322.673C201.142 322.048 201.644 321.516 202.247 321.12Z" fill="#455A64"/>
<path d="M202.247 340.86L334.583 264.468C335.723 263.808 336.659 264.336 336.659 265.668V272.124C336.618 272.845 336.409 273.545 336.049 274.171C335.688 274.796 335.186 275.328 334.583 275.724L202.247 352.116C201.107 352.788 200.171 352.248 200.171 350.916V344.46C200.213 343.74 200.422 343.039 200.783 342.414C201.143 341.789 201.645 341.257 202.247 340.86Z" fill="#455A64"/>
<path d="M202.247 360.612L334.583 284.208C335.723 283.548 336.659 284.076 336.659 285.408V291.864C336.618 292.585 336.409 293.285 336.049 293.911C335.688 294.536 335.186 295.068 334.583 295.464L202.247 371.868C201.107 372.528 200.171 371.988 200.171 370.668V364.212C200.21 363.491 200.418 362.789 200.779 362.164C201.14 361.539 201.643 361.007 202.247 360.612Z" fill="#455A64"/>
<path d="M216.875 385.848L349.235 309.444C349.489 309.363 349.711 309.203 349.869 308.987C350.026 308.771 350.111 308.511 350.111 308.244C350.111 307.977 350.026 307.717 349.869 307.501C349.711 307.286 349.489 307.125 349.235 307.044L343.643 303.816C343 303.49 342.288 303.32 341.567 303.32C340.846 303.32 340.135 303.49 339.491 303.816L207.131 380.22C206.877 380.301 206.655 380.462 206.498 380.677C206.34 380.893 206.255 381.153 206.255 381.42C206.255 381.687 206.34 381.947 206.498 382.163C206.655 382.378 206.877 382.539 207.131 382.62L212.723 385.848C213.367 386.174 214.078 386.344 214.799 386.344C215.52 386.344 216.232 386.174 216.875 385.848Z" fill="#455A64"/>
<path d="M233.939 395.7L366.263 319.296C366.518 319.215 366.739 319.055 366.897 318.839C367.054 318.623 367.139 318.363 367.139 318.096C367.139 317.829 367.054 317.569 366.897 317.353C366.739 317.138 366.518 316.977 366.263 316.896L360.671 313.668C360.028 313.342 359.317 313.172 358.595 313.172C357.874 313.172 357.163 313.342 356.519 313.668L224.183 390.072C223.935 390.159 223.719 390.322 223.567 390.537C223.415 390.752 223.333 391.009 223.333 391.272C223.333 391.535 223.415 391.792 223.567 392.007C223.719 392.222 223.935 392.385 224.183 392.472L229.775 395.7C230.421 396.025 231.134 396.194 231.857 396.194C232.58 396.194 233.293 396.025 233.939 395.7Z" fill="#455A64"/>
<path d="M250.991 405.6L383.327 329.208C383.576 329.121 383.791 328.958 383.943 328.743C384.096 328.528 384.177 328.271 384.177 328.008C384.177 327.745 384.096 327.488 383.943 327.273C383.791 327.058 383.576 326.895 383.327 326.808L377.735 323.58C377.089 323.255 376.376 323.086 375.653 323.086C374.93 323.086 374.217 323.255 373.571 323.58L241.235 399.912C240.035 400.584 240.035 401.652 241.235 402.312L246.827 405.54C247.466 405.883 248.177 406.067 248.902 406.078C249.627 406.088 250.343 405.924 250.991 405.6Z" fill="#455A64"/>
<path d="M209.711 320.664C209.322 320.921 208.999 321.265 208.768 321.669C208.537 322.074 208.403 322.527 208.379 322.992C208.379 323.844 208.979 324.192 209.711 323.76C210.102 323.507 210.427 323.166 210.661 322.763C210.894 322.361 211.03 321.909 211.055 321.444C211.055 320.592 210.455 320.244 209.711 320.664Z" fill="#263238"/>
<path d="M209.711 340.368C209.324 340.624 209.002 340.966 208.771 341.368C208.539 341.77 208.405 342.221 208.379 342.684C208.379 343.536 208.979 343.884 209.711 343.464C210.102 343.211 210.427 342.87 210.661 342.467C210.894 342.065 211.03 341.613 211.055 341.148C211.055 340.284 210.455 339.948 209.711 340.368Z" fill="#263238"/>
<path d="M209.711 360.072C209.323 360.327 209.001 360.669 208.769 361.071C208.538 361.474 208.404 361.925 208.379 362.388C208.379 363.24 208.979 363.588 209.711 363.156C210.103 362.904 210.428 362.563 210.662 362.16C210.896 361.757 211.031 361.305 211.055 360.84C211.055 360 210.455 359.64 209.711 360.072Z" fill="#263238"/>
<path d="M326.723 272.988C326.333 273.241 326.009 273.583 325.778 273.985C325.546 274.388 325.414 274.84 325.391 275.304C325.391 276.156 325.979 276.504 326.723 276.072C327.115 275.82 327.441 275.479 327.674 275.076C327.908 274.673 328.043 274.221 328.067 273.756C328.067 272.904 327.467 272.556 326.723 272.988Z" fill="#263238"/>
<path d="M326.723 253.788C326.333 254.041 326.009 254.383 325.778 254.785C325.546 255.188 325.414 255.64 325.391 256.104C325.391 256.956 325.979 257.304 326.723 256.872C327.115 256.62 327.441 256.279 327.674 255.876C327.908 255.473 328.043 255.021 328.067 254.556C328.067 253.704 327.467 253.356 326.723 253.788Z" fill="#263238"/>
<path d="M326.723 292.68C326.334 292.933 326.01 293.275 325.779 293.678C325.547 294.081 325.415 294.532 325.391 294.996C325.391 295.86 325.979 296.196 326.723 295.776C327.114 295.523 327.439 295.182 327.673 294.779C327.907 294.377 328.042 293.925 328.067 293.46C328.067 292.608 327.467 292.26 326.723 292.68Z" fill="#263238"/>
<path d="M220.835 376.32C220.187 376.704 220.187 377.304 220.835 377.676C221.204 377.874 221.617 377.977 222.035 377.977C222.454 377.977 222.866 377.874 223.235 377.676C223.883 377.304 223.883 376.704 223.235 376.32C222.864 376.129 222.453 376.029 222.035 376.029C221.618 376.029 221.206 376.129 220.835 376.32Z" fill="#263238"/>
<path d="M237.923 386.256C237.783 386.306 237.662 386.398 237.577 386.519C237.491 386.641 237.446 386.786 237.446 386.934C237.446 387.083 237.491 387.227 237.577 387.349C237.662 387.47 237.783 387.562 237.923 387.612C238.294 387.804 238.706 387.904 239.123 387.904C239.541 387.904 239.952 387.804 240.323 387.612C240.463 387.562 240.584 387.47 240.67 387.349C240.755 387.227 240.801 387.083 240.801 386.934C240.801 386.786 240.755 386.641 240.67 386.519C240.584 386.398 240.463 386.306 240.323 386.256C239.952 386.065 239.541 385.965 239.123 385.965C238.706 385.965 238.294 386.065 237.923 386.256Z" fill="#263238"/>
<path d="M255.035 396.18C254.387 396.564 254.375 397.164 255.035 397.548C255.406 397.74 255.818 397.84 256.235 397.84C256.653 397.84 257.064 397.74 257.435 397.548C258.095 397.164 258.095 396.564 257.435 396.18C257.064 395.988 256.653 395.889 256.235 395.889C255.818 395.889 255.406 395.988 255.035 396.18Z" fill="#263238"/>
<path d="M337.691 308.892C337.043 309.276 337.031 309.876 337.691 310.26C338.062 310.452 338.474 310.552 338.891 310.552C339.309 310.552 339.72 310.452 340.091 310.26C340.751 309.876 340.751 309.276 340.091 308.892C339.72 308.701 339.309 308.601 338.891 308.601C338.474 308.601 338.062 308.701 337.691 308.892Z" fill="#263238"/>
<path d="M354.791 318.828C354.651 318.878 354.53 318.97 354.445 319.091C354.359 319.213 354.313 319.358 354.313 319.506C354.313 319.655 354.359 319.799 354.445 319.921C354.53 320.042 354.651 320.134 354.791 320.184C355.162 320.376 355.574 320.476 355.991 320.476C356.409 320.476 356.82 320.376 357.191 320.184C357.331 320.134 357.452 320.042 357.537 319.921C357.623 319.799 357.669 319.655 357.669 319.506C357.669 319.358 357.623 319.213 357.537 319.091C357.452 318.97 357.331 318.878 357.191 318.828C356.82 318.637 356.409 318.537 355.991 318.537C355.574 318.537 355.162 318.637 354.791 318.828Z" fill="#263238"/>
<path d="M371.903 328.8C371.255 329.172 371.255 329.772 371.903 330.156C372.274 330.348 372.686 330.448 373.103 330.448C373.521 330.448 373.932 330.348 374.303 330.156C374.951 329.772 374.951 329.172 374.303 328.8C373.934 328.603 373.522 328.499 373.103 328.499C372.685 328.499 372.272 328.603 371.903 328.8Z" fill="#263238"/>
<path d="M268.307 287.052C267.916 287.304 267.59 287.645 267.356 288.048C267.123 288.451 266.988 288.903 266.963 289.368C266.963 290.22 267.563 290.568 268.307 290.136C268.695 289.881 269.018 289.539 269.249 289.137C269.48 288.734 269.614 288.283 269.639 287.82C269.639 286.968 269.039 286.62 268.307 287.052Z" fill="#263238"/>
<path d="M268.307 306.744C267.916 306.999 267.59 307.342 267.356 307.747C267.123 308.151 266.988 308.606 266.963 309.072C266.963 309.924 267.563 310.272 268.307 309.84C268.694 309.585 269.016 309.242 269.248 308.84C269.479 308.438 269.613 307.987 269.639 307.524C269.639 306.672 269.039 306.324 268.307 306.744Z" fill="#263238"/>
<path d="M268.307 326.4C267.917 326.653 267.591 326.994 267.358 327.397C267.124 327.799 266.989 328.251 266.963 328.716C266.963 329.568 267.563 329.916 268.307 329.496C268.696 329.239 269.019 328.895 269.25 328.491C269.482 328.086 269.615 327.633 269.639 327.168C269.639 326.4 269.039 326.028 268.307 326.4Z" fill="#263238"/>
<path d="M279.263 342.66C279.123 342.71 279.002 342.802 278.917 342.923C278.831 343.045 278.786 343.19 278.786 343.338C278.786 343.486 278.831 343.631 278.917 343.753C279.002 343.874 279.123 343.966 279.263 344.016C279.632 344.213 280.045 344.317 280.463 344.317C280.882 344.317 281.294 344.213 281.663 344.016C282.311 343.644 282.311 343.044 281.663 342.66C281.292 342.468 280.881 342.369 280.463 342.369C280.046 342.369 279.634 342.468 279.263 342.66Z" fill="#263238"/>
<path d="M296.435 352.596C296.295 352.646 296.174 352.738 296.089 352.859C296.003 352.981 295.958 353.126 295.958 353.274C295.958 353.423 296.003 353.567 296.089 353.689C296.174 353.81 296.295 353.902 296.435 353.952C296.806 354.144 297.218 354.244 297.635 354.244C298.053 354.244 298.464 354.144 298.835 353.952C298.975 353.902 299.096 353.81 299.181 353.689C299.267 353.567 299.313 353.423 299.313 353.274C299.313 353.126 299.267 352.981 299.181 352.859C299.096 352.738 298.975 352.646 298.835 352.596C298.464 352.405 298.053 352.305 297.635 352.305C297.218 352.305 296.806 352.405 296.435 352.596Z" fill="#263238"/>
<path d="M313.487 362.52C312.839 362.904 312.827 363.504 313.487 363.876C313.856 364.073 314.269 364.177 314.687 364.177C315.106 364.177 315.518 364.073 315.887 363.876C316.547 363.504 316.547 362.904 315.887 362.52C315.516 362.328 315.105 362.229 314.687 362.229C314.27 362.229 313.858 362.328 313.487 362.52Z" fill="#263238"/>
<path d="M451.127 285.684H476.759C478.586 285.684 480.338 284.958 481.63 283.667C482.921 282.375 483.647 280.623 483.647 278.796V224.28C483.647 219.054 481.571 214.042 477.876 210.347C474.181 206.652 469.169 204.576 463.943 204.576C458.719 204.579 453.711 206.657 450.018 210.351C446.325 214.046 444.251 219.056 444.251 224.28V278.796C444.251 280.621 444.975 282.371 446.264 283.662C447.553 284.954 449.302 285.681 451.127 285.684Z" fill="#263238"/>
<path d="M447.539 261.912L440.903 340.8C440.903 340.8 455.663 348.792 472.103 342.06V271.8L447.539 261.912Z" fill="#73895D"/>
<path opacity="0.6" d="M447.539 261.912L440.903 340.8C440.903 340.8 455.663 348.792 472.103 342.06V271.8L447.539 261.912Z" fill="white"/>
<path d="M510.035 398.808C511.583 398.004 512.567 400.008 513.983 401.556C514.967 402.672 516.515 404.424 516.743 405.696C517.079 407.568 515.387 410.496 513.515 412.14C511.643 413.784 509.483 414.936 508.799 418.5C508.626 420.133 507.992 421.683 506.973 422.97C505.953 424.258 504.589 425.229 503.039 425.772C498.995 427.512 493.571 426.972 491.735 425.772C489.551 424.368 491.543 422.82 494.603 418.452C498.587 412.752 501.683 408.672 501.683 403.356L510.035 398.808Z" fill="#73895D"/>
<path d="M506.879 394.14L510.155 398.94C510.851 399.934 511.126 401.164 510.919 402.36C510.712 403.556 510.041 404.621 509.051 405.324L508.943 405.396C507.951 405.996 506.78 406.227 505.634 406.05C504.489 405.872 503.443 405.296 502.679 404.424L497.579 398.856L506.879 394.14Z" fill="#F28F8F"/>
<path d="M448.067 303.12C447.863 309.228 446.783 331.512 451.247 343.212C453.706 349.857 456.813 356.244 460.523 362.28C461.855 364.56 500.123 401.88 500.123 401.88C500.123 401.88 506.615 401.4 507.659 395.112C507.659 395.112 491.975 368.448 488.579 362.976C485.183 357.504 473.147 349.128 473.147 349.128L474.239 297.864L448.067 303.12Z" fill="#73895D"/>
<path opacity="0.4" d="M448.067 303.12C447.863 309.228 446.783 331.512 451.247 343.212C453.706 349.857 456.813 356.244 460.523 362.28C461.855 364.56 500.123 401.88 500.123 401.88C500.123 401.88 506.615 401.4 507.659 395.112C507.659 395.112 491.975 368.448 488.579 362.976C485.183 357.504 473.147 349.128 473.147 349.128L474.239 297.864L448.067 303.12Z" fill="black"/>
<path d="M457.899 418.998L449.801 417.157L447.122 428.94L455.219 430.781L457.899 418.998Z" fill="#F28F8F"/>
<path d="M461.555 321.78C458.786 319.219 456.307 316.362 454.163 313.26C447.971 304.716 448.931 297.12 448.931 297.12H451.463L484.931 297.804C488.243 303.24 488.975 311.496 487.847 319.524C485.519 336.204 471.707 365.124 471.707 365.124C471.911 367.404 472.907 376.98 470.699 385.524C467.267 398.94 457.907 421.62 457.907 421.62C457.907 421.62 452.051 422.46 449.147 419.064C449.147 419.064 454.319 373.008 455.711 361.212C457.235 348.336 461.555 321.78 461.555 321.78Z" fill="#73895D"/>
<path opacity="0.4" d="M461.555 321.78C458.786 319.219 456.307 316.362 454.163 313.26C447.971 304.716 448.931 297.12 448.931 297.12H451.463L484.931 297.804C488.243 303.24 488.975 311.496 487.847 319.524C485.519 336.204 471.707 365.124 471.707 365.124C471.911 367.404 472.907 376.98 470.699 385.524C467.267 398.94 457.907 421.62 457.907 421.62C457.907 421.62 452.051 422.46 449.147 419.064C449.147 419.064 454.319 373.008 455.711 361.212C457.235 348.336 461.555 321.78 461.555 321.78Z" fill="black"/>
<path d="M483.167 272.7C482.819 272.1 472.427 257.544 483.107 250.044C477.443 253.104 477.107 257.244 477.107 261.24C477.155 265.008 478.703 268.152 483.167 272.7Z" fill="#F28F8F"/>
<path d="M448.043 424.932L448.307 423.732C447.455 423.9 443.831 429.924 440.219 432.552C436.283 435.42 432.851 437.112 431.087 438.408C428.687 440.148 432.143 443.688 437.951 444C440.831 444.156 446.075 443.28 447.695 441.744C449.315 440.208 450.479 437.676 451.763 436.572C453.047 435.468 455.639 434.496 456.563 433.092C457.057 431.697 457.23 430.207 457.067 428.736C457.067 427.212 456.971 425.556 456.455 425.58C456.455 425.748 456.251 426.456 456.251 426.456C454.729 427.229 453.037 427.605 451.331 427.548C449.915 427.512 447.371 427.2 448.043 424.932Z" fill="#73895D"/>
<path opacity="0.17" d="M456.743 353.28C456.743 353.28 460.643 325.572 461.543 321.78C461.543 321.78 454.667 319.164 452.555 316.752C452.555 316.752 454.067 320.112 458.987 323.1L456.743 353.28Z" fill="#73895D"/>
<path opacity="0.17" d="M477.527 352.464C477.527 352.464 473.387 362.784 471.707 365.064C471.707 365.064 472.127 372.912 472.067 374.496L474.239 376.392C474.301 372.835 473.975 369.282 473.267 365.796L477.527 352.464Z" fill="#73895D"/>
<path d="M449.951 274.452C449.423 279.252 448.067 303.12 448.067 303.12C464.075 311.664 483.935 306.012 486.983 302.484C485.391 296.677 482.285 291.397 477.983 287.184L483.179 272.712C483.179 272.712 483.791 271.224 483.779 271.212C483.443 270.624 476.195 262.464 483.071 249.504L473.723 248.652L460.043 248.256C457.067 248.424 454.943 248.712 454.943 248.712C453.035 250.5 450.023 255.408 448.067 260.412C446.807 263.628 445.103 269.736 449.951 274.452Z" fill="white"/>
<path d="M452.435 213.156C450.359 214.356 447.779 219.624 448.043 230.592C448.247 239.892 451.271 242.184 452.783 242.856C454.295 243.528 457.211 243.108 460.055 242.64V248.22C460.055 248.22 456.131 252.768 456.371 255.336C456.611 257.904 462.035 258.492 465.707 255.996C468.362 253.943 470.647 251.451 472.463 248.628L472.403 235.788C472.403 235.788 474.071 237.408 476.903 234.936C479.243 232.896 480.035 229.452 478.211 227.604C477.74 227.163 477.17 226.841 476.55 226.664C475.929 226.486 475.275 226.459 474.642 226.585C474.009 226.71 473.415 226.985 472.909 227.385C472.402 227.786 471.999 228.301 471.731 228.888C468.008 228.734 464.383 227.654 461.183 225.744C458.836 224.484 456.82 222.687 455.299 220.499C453.779 218.311 452.798 215.795 452.435 213.156Z" fill="#FFA8A7"/>
<path d="M458.435 228.252C458.435 228.489 458.506 228.721 458.637 228.919C458.769 229.116 458.957 229.27 459.176 229.361C459.395 229.451 459.637 229.475 459.869 229.429C460.102 229.383 460.316 229.268 460.484 229.101C460.652 228.933 460.766 228.719 460.812 228.486C460.858 228.253 460.835 228.012 460.744 227.793C460.653 227.574 460.499 227.386 460.302 227.254C460.105 227.122 459.873 227.052 459.635 227.052C459.317 227.052 459.012 227.178 458.787 227.403C458.562 227.629 458.435 227.934 458.435 228.252Z" fill="#263238"/>
<path d="M458.159 236.136L455.435 237C455.485 237.183 455.571 237.353 455.687 237.502C455.804 237.651 455.95 237.775 456.115 237.867C456.281 237.959 456.463 238.016 456.651 238.037C456.84 238.057 457.03 238.039 457.211 237.984C457.575 237.855 457.876 237.592 458.053 237.249C458.229 236.905 458.267 236.507 458.159 236.136Z" fill="#F28F8F"/>
<path d="M448.835 224.664L451.235 223.032C451.137 222.872 451.006 222.733 450.852 222.625C450.698 222.517 450.524 222.441 450.339 222.403C450.155 222.365 449.965 222.365 449.78 222.403C449.596 222.441 449.421 222.516 449.267 222.624C448.947 222.844 448.724 223.178 448.643 223.558C448.563 223.937 448.631 224.334 448.835 224.664Z" fill="#263238"/>
<path d="M449.423 227.412C449.403 227.726 449.508 228.036 449.715 228.274C449.921 228.512 450.213 228.659 450.527 228.684C450.845 228.684 451.151 228.558 451.376 228.333C451.601 228.107 451.727 227.802 451.727 227.484C451.747 227.169 451.642 226.86 451.436 226.622C451.229 226.384 450.937 226.237 450.623 226.212C450.305 226.212 450 226.338 449.775 226.563C449.55 226.788 449.423 227.094 449.423 227.412Z" fill="#263238"/>
<path d="M454.943 226.74L454.751 233.784L451.055 232.632L454.943 226.74Z" fill="#F28F8F"/>
<path d="M460.103 242.64C463.091 242.244 469.235 240.48 470.195 238.044C469.82 239.295 469.065 240.398 468.035 241.2C466.187 242.772 460.091 244.548 460.091 244.548L460.103 242.64Z" fill="#F28F8F"/>
<path d="M481.079 278.544L472.079 290.1L477.983 287.184L481.079 278.544Z" fill="#73895D"/>
<path d="M480.263 214.476L484.823 212.076C484.684 211.763 484.481 211.482 484.229 211.25C483.976 211.018 483.679 210.84 483.355 210.728C483.031 210.615 482.688 210.57 482.346 210.596C482.004 210.621 481.671 210.717 481.367 210.876C480.757 211.221 480.303 211.786 480.097 212.456C479.892 213.126 479.951 213.849 480.263 214.476Z" fill="#263238"/>
<path d="M480.359 214.5L484.847 217.104C485.033 216.818 485.158 216.498 485.216 216.162C485.273 215.826 485.262 215.482 485.182 215.151C485.103 214.82 484.956 214.508 484.752 214.235C484.548 213.962 484.29 213.734 483.995 213.564C483.385 213.221 482.667 213.127 481.989 213.301C481.311 213.476 480.727 213.905 480.359 214.5Z" fill="#263238"/>
<path d="M451.235 394.14C451.235 394.14 447.911 418.284 447.059 422.196C446.207 426.108 439.979 431.232 434.759 434.724C429.959 437.904 428.639 439.212 430.331 442.896C433.139 446.496 440.471 445.728 444.503 444.096C448.535 442.464 450.611 438.468 454.739 436.548C457.907 435.072 458.711 433.944 458.603 429.948C458.447 423.66 467.159 398.28 467.159 398.28C465.179 393.996 455.531 392.148 451.235 394.14Z" fill="#73895D"/>
<path d="M485.615 388.176C488.975 391.872 499.619 401.88 500.795 403.5C502.379 405.672 499.595 410.016 497.975 413.028C496.019 416.628 490.715 421.8 490.535 423.768C490.355 425.736 491.735 426.936 494.519 427.476C497.303 428.016 503.495 427.656 506.747 423.948C509.999 420.24 510.623 416.544 512.435 414.228C514.247 411.912 517.739 408.468 517.235 406.104C516.827 404.28 514.331 401.088 510.983 397.188C507.635 393.288 497.591 377.988 497.591 377.988C496.835 382.188 490.079 387.996 485.615 388.176Z" fill="#73895D"/>
<path d="M458.603 429.912C457.729 431.899 456.108 433.464 454.091 434.268C452.015 435.24 448.775 438.396 447.143 439.872C444.443 442.332 438.623 444.18 434.603 443.244C437.013 443.92 439.562 443.92 441.971 443.244C444.604 442.593 446.99 441.187 448.835 439.2C450.409 437.607 452.189 436.231 454.127 435.108C455.771 434.472 458.111 432.972 458.567 431.076L458.603 429.912Z" fill="#73895D"/>
<path opacity="0.1" d="M458.603 429.912C457.729 431.899 456.108 433.464 454.091 434.268C452.015 435.24 448.775 438.396 447.143 439.872C444.443 442.332 438.623 444.18 434.603 443.244C437.013 443.92 439.562 443.92 441.971 443.244C444.604 442.593 446.99 441.187 448.835 439.2C450.409 437.607 452.189 436.231 454.127 435.108C455.771 434.472 458.111 432.972 458.567 431.076L458.603 429.912Z" fill="black"/>
<path d="M516.203 403.92C515.931 406.332 514.798 408.565 513.011 410.208C511.179 412.222 509.658 414.5 508.499 416.964C506.099 421.548 503.831 425.1 498.899 425.976C501.137 425.886 503.268 424.991 504.899 423.456C506.77 421.607 508.247 419.398 509.243 416.964C510.359 414.78 511.698 412.717 513.239 410.808C515.041 409.176 516.234 406.98 516.623 404.58L516.203 403.92Z" fill="#73895D"/>
<path opacity="0.1" d="M516.203 403.92C515.931 406.332 514.798 408.565 513.011 410.208C511.179 412.222 509.658 414.5 508.499 416.964C506.099 421.548 503.831 425.1 498.899 425.976C501.137 425.886 503.268 424.991 504.899 423.456C506.77 421.607 508.247 419.398 509.243 416.964C510.359 414.78 511.698 412.717 513.239 410.808C515.041 409.176 516.234 406.98 516.623 404.58L516.203 403.92Z" fill="black"/>
<path d="M472.511 248.016L483.071 248.892C483.071 248.892 478.391 261.492 483.779 271.212L481.439 283.572V288.312C481.439 288.312 487.655 298.536 488.807 307.608C489.959 316.68 489.647 344.124 489.647 344.124C489.647 344.124 477.263 350.328 465.143 346.176C465.143 346.176 466.499 271.98 468.611 261.948C470.723 251.916 472.511 248.016 472.511 248.016Z" fill="#73895D"/>
<path opacity="0.7" d="M472.511 248.016L483.071 248.892C483.071 248.892 478.391 261.492 483.779 271.212L481.439 283.572V288.312C481.439 288.312 487.655 298.536 488.807 307.608C489.959 316.68 489.647 344.124 489.647 344.124C489.647 344.124 477.263 350.328 465.143 346.176C465.143 346.176 466.499 271.98 468.611 261.948C470.723 251.916 472.511 248.016 472.511 248.016Z" fill="white"/>
<path d="M471.935 321.6L471.707 340.8C471.707 340.8 479.303 342.072 484.775 339.6C484.775 339.6 482.759 342.132 477.575 342.42C472.391 342.708 470.435 342 470.435 342L471.935 321.6Z" fill="#73895D"/>
<path d="M483.035 275.124C481.328 270.961 480.12 266.611 479.435 262.164C479.022 267.601 480.07 273.049 482.471 277.944L483.035 275.124Z" fill="#73895D"/>
<path d="M460.103 248.22C455.143 252.01 450.89 256.645 447.539 261.912C447.539 261.912 448.247 253.032 449.351 250.86C450.671 248.256 454.439 247.536 460.151 247.452L460.103 248.22Z" fill="#73895D"/>
<path opacity="0.6" d="M460.103 248.22C455.143 252.01 450.89 256.645 447.539 261.912C447.539 261.912 448.247 253.032 449.351 250.86C450.671 248.256 454.439 247.536 460.151 247.452L460.103 248.22Z" fill="white"/>
<path d="M491.651 289.62C486.059 293.448 478.931 298.584 473.375 299.868C472.372 300.095 471.32 299.941 470.423 299.436C468.023 298.14 466.307 298.056 463.883 297.432C461.987 296.94 461.099 296.1 460.787 296.472C460.484 296.948 460.371 297.519 460.468 298.075C460.566 298.63 460.868 299.128 461.315 299.472C462.28 300.25 463.331 300.915 464.447 301.452C462.244 301.78 460.002 301.743 457.811 301.344C452.771 300.468 452.339 303.96 453.719 307.248C455.303 311.004 459.059 312.048 468.407 310.368C472.003 309.591 475.519 308.478 478.907 307.044C486.224 303.916 493.345 300.35 500.231 296.364" fill="#FFA8A7"/>
<path d="M483.071 248.892C484.835 248.979 486.546 249.526 488.032 250.48C489.519 251.434 490.729 252.76 491.543 254.328C493.379 257.388 499.943 278.556 503.375 291.528C503.641 292.52 503.564 293.573 503.157 294.516C502.75 295.459 502.036 296.237 501.131 296.724C498.155 298.332 493.151 301.164 489.683 302.724C488.551 299.41 487.137 296.198 485.459 293.124L489.191 290.58L483.035 275.16C483.035 275.16 474.911 260.16 483.071 248.892Z" fill="#73895D"/>
<path opacity="0.7" d="M483.071 248.892C484.835 248.979 486.546 249.526 488.032 250.48C489.519 251.434 490.729 252.76 491.543 254.328C493.379 257.388 499.943 278.556 503.375 291.528C503.641 292.52 503.564 293.573 503.157 294.516C502.75 295.459 502.036 296.237 501.131 296.724C498.155 298.332 493.151 301.164 489.683 302.724C488.551 299.41 487.137 296.198 485.459 293.124L489.191 290.58L483.035 275.16C483.035 275.16 474.911 260.16 483.071 248.892Z" fill="white"/>
<path d="M526.739 371.124C527.541 371.124 528.191 370.474 528.191 369.672C528.191 368.87 527.541 368.22 526.739 368.22C525.937 368.22 525.287 368.87 525.287 369.672C525.287 370.474 525.937 371.124 526.739 371.124Z" fill="#73895D"/>
<path d="M528.647 374.892C528.528 374.895 528.411 374.86 528.312 374.794C528.213 374.727 528.137 374.632 528.095 374.52L526.175 369.9C526.115 369.752 526.115 369.586 526.177 369.439C526.239 369.291 526.357 369.174 526.505 369.114C526.653 369.054 526.819 369.054 526.967 369.116C527.114 369.178 527.231 369.296 527.291 369.444L529.199 374.064C529.23 374.136 529.247 374.214 529.247 374.293C529.248 374.372 529.233 374.45 529.202 374.523C529.172 374.595 529.128 374.661 529.071 374.717C529.015 374.772 528.948 374.815 528.875 374.844C528.804 374.877 528.726 374.894 528.647 374.892Z" fill="#37474F"/>
<path d="M528.107 369.216L505.559 303.636L492.359 308.928L525.467 370.368L528.107 369.216Z" fill="#73895D"/>
<path d="M493.379 309.6C494.195 307.98 492.179 305.208 493.379 303.936C494.579 302.664 496.403 304.728 497.927 304.068C499.763 303.276 499.391 300.636 500.651 300.468C502.427 300.264 503.159 303.996 505.223 304.068L493.379 309.6Z" fill="#73895D"/>
<path opacity="0.2" d="M493.379 309.6C494.195 307.98 492.179 305.208 493.379 303.936C494.579 302.664 496.403 304.728 497.927 304.068C499.763 303.276 499.391 300.636 500.651 300.468C502.427 300.264 503.159 303.996 505.223 304.068L493.379 309.6Z" fill="black"/>
<path d="M486.983 292.044L488.339 291.12C488.339 291.12 489.899 289.5 491.111 292.044C492.143 294.264 496.211 303.276 497.723 306.624C497.796 306.784 497.9 306.928 498.031 307.045C498.162 307.163 498.315 307.252 498.482 307.307C498.649 307.362 498.826 307.382 499.001 307.366C499.176 307.35 499.345 307.297 499.499 307.212C499.773 307.053 499.979 306.799 500.079 306.498C500.178 306.198 500.164 305.871 500.039 305.58C498.527 302.232 493.931 291.972 493.379 290.592C492.707 288.924 491.267 286.572 488.219 288.192C487.88 288.358 487.578 288.591 487.331 288.877C487.084 289.163 486.897 289.495 486.782 289.855C486.667 290.215 486.625 290.594 486.659 290.97C486.694 291.346 486.804 291.711 486.983 292.044Z" fill="#37474F"/>
<path d="M494.243 306.72C492.251 309.24 493.175 310.488 495.311 310.716C497.049 310.849 498.794 310.585 500.414 309.942C502.034 309.3 503.485 308.296 504.659 307.008C506.639 304.488 506.255 304.104 503.087 303.636C501.473 303.366 499.816 303.507 498.27 304.046C496.725 304.585 495.34 305.504 494.243 306.72Z" fill="#73895D"/>
<path opacity="0.2" d="M494.243 306.72C492.251 309.24 493.175 310.488 495.311 310.716C497.049 310.849 498.794 310.585 500.414 309.942C502.034 309.3 503.485 308.296 504.659 307.008C506.639 304.488 506.255 304.104 503.087 303.636C501.473 303.366 499.816 303.507 498.27 304.046C496.725 304.585 495.34 305.504 494.243 306.72Z" fill="black"/>
<path d="M496.583 310.788L523.307 362.748L497.579 309.588L496.583 310.788Z" fill="#73895D"/>
<path opacity="0.2" d="M496.583 310.788L523.307 362.748L497.579 309.588L496.583 310.788Z" fill="black"/>
<path d="M503.687 306.72L521.531 355.608L502.511 308.016L503.687 306.72Z" fill="#73895D"/>
<path opacity="0.2" d="M503.687 306.72L521.531 355.608L502.511 308.016L503.687 306.72Z" fill="black"/>
<path d="M498.035 310.644C498.815 310.476 496.631 306.012 498.383 305.148C500.135 304.284 501.875 309.072 502.751 308.748C502.819 309.344 502.709 309.946 502.436 310.48C502.162 311.013 501.738 311.454 501.215 311.748C499.499 312.468 498.035 310.644 498.035 310.644Z" fill="#73895D"/>
<path d="M504.035 307.692C504.503 307.308 502.907 302.196 504.791 301.332L507.047 307.968L504.035 307.692Z" fill="#73895D"/>
<path d="M496.583 310.8C496.043 311.016 495.047 309.516 494.183 308.22C493.319 306.924 491.879 306.18 491.111 306.576L493.391 310.8C493.391 310.8 495.347 312.276 496.583 310.8Z" fill="#73895D"/>
</svg>
